<?xml version="1.0" encoding="UTF-8" standalone="no"?>
<!-- Created with Inkscape (http://www.inkscape.org/) -->

<svg
   width="36"
   height="36"
   id="svg10643"
   version="1.0"
   xmlns:xlink="http://www.w3.org/1999/xlink"
   xmlns="http://www.w3.org/2000/svg"
   xmlns:svg="http://www.w3.org/2000/svg"
   xmlns:rdf="http://www.w3.org/1999/02/22-rdf-syntax-ns#"
   xmlns:cc="http://creativecommons.org/ns#"
   xmlns:dc="http://purl.org/dc/elements/1.1/">
  <defs
     id="defs10645">
    <linearGradient
       id="linearGradient3328">
      <stop
         style="stop-color:#aaaaaa;stop-opacity:0;"
         offset="0"
         id="stop3330" />
      <stop
         style="stop-color:#aaaaaa;stop-opacity:1;"
         offset="1"
         id="stop3333" />
    </linearGradient>
    <linearGradient
       id="linearGradient3332">
      <stop
         style="stop-color:#aaaaaa;stop-opacity:1;"
         offset="0"
         id="stop3335" />
      <stop
         style="stop-color:#aaaaaa;stop-opacity:0;"
         offset="1"
         id="stop3337" />
    </linearGradient>
    <radialGradient
       xlink:href="#linearGradient3332"
       id="radialGradient3339"
       cx="12.5"
       cy="17.16876"
       fx="12.5"
       fy="17.16876"
       r="7.5"
       gradientTransform="matrix(1.3134281,0,0,1.8590535,-3.9178515,-12.917645)"
       gradientUnits="userSpaceOnUse" />
    <radialGradient
       xlink:href="#linearGradient3328"
       id="radialGradient3326"
       cx="9.5234308"
       cy="11.938179"
       fx="9.5234308"
       fy="11.938179"
       r="7.515625"
       gradientTransform="matrix(1.075776,-0.00217486,0.00252633,1.249628,-0.8271725,-2.5253329)"
       gradientUnits="userSpaceOnUse" />
  </defs>
  <metadata
     id="metadata10648">
    <rdf:RDF>
      <cc:Work
         rdf:about="">
        <dc:format>image/svg+xml</dc:format>
        <dc:type
           rdf:resource="http://purl.org/dc/dcmitype/StillImage" />
      </cc:Work>
    </rdf:RDF>
  </metadata>
  <g
     id="g1"
     transform="translate(5.500115,7.9654952)">
    <path
       style="opacity:1;fill:#000000;fill-opacity:1;stroke:#000000;stroke-width:2;stroke-linecap:round;stroke-linejoin:miter;stroke-miterlimit:4;stroke-dasharray:none;stroke-opacity:1"
       d="m 9.5,1.0690095 c -0.831,0 -1.5,0.6690001 -1.5,1.5 V 11.7 C 8,10.869 7.331,10.2 6.5,10.2 5.669,10.2 5,10.869 5,11.7 v 1.8 1 c 0,0.07302 0.021263,0.148575 0.03125,0.21875 0.00422,0.02965 -0.00592,0.06469 0,0.09375 C 5.0256445,14.875894 5,14.935871 5,15 c 0,2.208 3.3599994,4.000001 7.5,4 4.14,0 7.500001,-1.792 7.5,-4 0,-0.06413 -0.02564,-0.124106 -0.03125,-0.1875 0.0059,-0.02906 -0.0042,-0.0641 0,-0.09375 C 19.978737,14.648575 20,14.573021 20,14.5 v -3.8 -1 c 0,-0.831 -0.669,-1.5 -1.5,-1.5 -0.657875,0 -1.202994,0.4129833 -1.40625,1 H 17 V 8.7 C 17,8.2510631 16.804748,7.8494069 16.494185,7.5749707 16.229882,7.3414146 15.882063,7.2 15.5,7.2 14.669,7.2 14,7.869 14,8.7 v -1 C 14,6.8690001 13.331,6.2 12.5,6.2 11.669,6.2 11,6.8689999 11,7.7 V 2.5690095 c 0,-0.8310001 -0.669,-1.5 -1.5,-1.5 z"
       id="rect3328" />
    <path
       id="path3341"
       d="m 9.5,0.8306709 c -0.831,0 -1.5,0.6690001 -1.5,1.5 V 10.5 v 1 C 8,10.669 7.331,10 6.5,10 5.669,10 5,10.669 5,11.5 v 2 1 c 0,0.07302 0.021263,0.148575 0.03125,0.21875 0.00422,0.02965 -0.00592,0.06469 0,0.09375 C 5.0256445,14.875894 5,14.935871 5,15 c 0,2.208 3.3599994,4.000001 7.5,4 4.14,0 7.500001,-1.792 7.5,-4 0,-0.06413 -0.02564,-0.124106 -0.03125,-0.1875 0.0059,-0.02906 -0.0042,-0.0641 0,-0.09375 C 19.978737,14.648575 20,14.573021 20,14.5 v -1 -3 -1 C 20,8.669 19.331,8 18.5,8 17.842125,8 17.297006,8.4129833 17.09375,9 H 17 V 8.5 C 17,7.669 16.331,7 15.5,7 14.669,7 14,7.669 14,8.5 v -1 C 14,6.6690001 13.331,6 12.5,6 11.669,6 11,6.6689999 11,7.5 V 2.3306709 c 0,-0.8310001 -0.669,-1.5 -1.5,-1.5 z"
       style="opacity:1;fill:#000000;fill-opacity:1;stroke:none;stroke-width:8;stroke-linecap:round;stroke-linejoin:miter;stroke-miterlimit:4;stroke-dasharray:none;stroke-opacity:1" />
    <path
       style="opacity:1;fill:url(#radialGradient3339);fill-opacity:1;stroke:none;stroke-width:8;stroke-linecap:round;stroke-linejoin:miter;stroke-miterlimit:4;stroke-dasharray:none;stroke-opacity:1"
       d="m 9.5,0.8306709 c -0.831,0 -1.5,0.6690001 -1.5,1.5 V 10.5 v 1 C 8,10.669 7.331,10 6.5,10 5.669,10 5,10.669 5,11.5 v 2 1 c 0,0.07302 0.021263,0.148575 0.03125,0.21875 0.00422,0.02965 -0.00592,0.06469 0,0.09375 C 5.0256445,14.875894 5,14.935871 5,15 c 0,2.208 3.3599994,4.000001 7.5,4 4.14,0 7.500001,-1.792 7.5,-4 0,-0.06413 -0.02564,-0.124106 -0.03125,-0.1875 0.0059,-0.02906 -0.0042,-0.0641 0,-0.09375 C 19.978737,14.648575 20,14.573021 20,14.5 v -1 -3 -1 C 20,8.669 19.331,8 18.5,8 17.842125,8 17.297006,8.4129833 17.09375,9 H 17 V 8.5 C 17,7.669 16.331,7 15.5,7 14.669,7 14,7.669 14,8.5 v -1 C 14,6.6690001 13.331,6 12.5,6 11.669,6 11,6.6689999 11,7.5 V 2.3306709 c 0,-0.8310001 -0.669,-1.5 -1.5,-1.5 z"
       id="rect2328" />
    <g
       id="g3343"
       style="fill:#aaaaaa;fill-opacity:1">
      <path
         id="path3512"
         d="M 9.5,10 C 8.6684843,10 8,10.448 8,11 8,11.188182 8.0824192,11.349621 8.21875,11.5 8.4823229,11.209267 8.9519555,11 9.5,11 c 0.553089,0 1.019277,0.204281 1.28125,0.5 C 10.912299,11.351739 11,11.184208 11,11 V 10.96875 C 10.974401,10.428058 10.314884,10 9.5,10 Z"
         style="opacity:0.585;fill:#aaaaaa;fill-opacity:1;stroke:none;stroke-width:2;stroke-linecap:round;stroke-linejoin:miter;stroke-miterlimit:4;stroke-dasharray:none;stroke-opacity:1" />
      <path
         style="opacity:0.585;fill:#aaaaaa;fill-opacity:1;stroke:none;stroke-width:2;stroke-linecap:round;stroke-linejoin:miter;stroke-miterlimit:4;stroke-dasharray:none;stroke-opacity:1"
         d="m 12.5,10 c -0.831516,0 -1.5,0.448 -1.5,1 0,0.188182 0.08242,0.349621 0.21875,0.5 C 11.482323,11.209267 11.951956,11 12.5,11 c 0.553089,0 1.019277,0.204281 1.28125,0.5 C 13.912299,11.351739 14,11.184208 14,11 V 10.96875 C 13.974401,10.428058 13.314884,10 12.5,10 Z"
         id="path3517" />
      <path
         id="path3519"
         d="m 15.5,10 c -0.831516,0 -1.5,0.448 -1.5,1 0,0.188182 0.08242,0.349621 0.21875,0.5 C 14.482323,11.209267 14.951956,11 15.5,11 c 0.553089,0 1.019277,0.204281 1.28125,0.5 C 16.912299,11.351739 17,11.184208 17,11 V 10.96875 C 16.974401,10.428058 16.314884,10 15.5,10 Z"
         style="opacity:0.585;fill:#aaaaaa;fill-opacity:1;stroke:none;stroke-width:2;stroke-linecap:round;stroke-linejoin:miter;stroke-miterlimit:4;stroke-dasharray:none;stroke-opacity:1" />
      <path
         style="opacity:0.585;fill:#aaaaaa;fill-opacity:1;stroke:none;stroke-width:2;stroke-linecap:round;stroke-linejoin:miter;stroke-miterlimit:4;stroke-dasharray:none;stroke-opacity:1"
         d="m 18.5,10 c -0.831516,0 -1.5,0.448 -1.5,1 0,0.188182 0.08242,0.349621 0.21875,0.5 C 17.482323,11.209267 17.951956,11 18.5,11 c 0.553089,0 1.019277,0.204281 1.28125,0.5 C 19.912299,11.351739 20,11.184208 20,11 V 10.96875 C 19.974401,10.428058 19.314884,10 18.5,10 Z"
         id="path3521" />
    </g>
    <path
       style="fill:url(#radialGradient3326);fill-opacity:1;fill-rule:evenodd;stroke:none;stroke-width:1px;stroke-linecap:butt;stroke-linejoin:round;stroke-opacity:1"
       d="M 9.71875,0.84375 C 9.0937285,0.8324771 8.4510458,1.2194064 8.15625,1.875 8.1339407,1.934927 8.1233324,1.9985768 8.125,2.0625 L 8,11 C 7.5611932,10.641255 7.0980006,10.143588 6.6875,10.0625 6.3454162,9.9949269 5.9961914,10.064767 5.71875,10.25 5.4413086,10.435233 5.2481978,10.694143 5.125,11 5.102691,11.05993 5.092082,11.123577 5.09375,11.1875 L 5,15.25 c 0.0073,0.0322 0.017764,0.06361 0.03125,0.09375 0.2239063,1.206939 1.236651,2.081833 2.53125,2.65625 1.294599,0.574417 2.910602,0.881968 4.5625,0.9375 1.651898,0.05553 3.333363,-0.147648 4.75,-0.65625 1.416637,-0.508602 2.591784,-1.314858 3.09375,-2.5625 0.0331,-0.05772 0.05435,-0.121464 0.0625,-0.1875 V 9.21875 C 20.027501,9.1419997 20.006114,9.067146 19.96875,9 19.757905,8.5346588 19.13042,8.0628132 18.493593,8.0124214 17.980949,7.9718562 17.449121,8.4471311 17.016562,9.1814858 16.915281,8.5823958 16.938766,7.6518156 16.354298,7.2541405 16.001262,7.0139328 15.352299,6.9738363 14.875,7.15625 14.607659,7.2584222 14.327315,7.5761419 14.0625,7.8125 13.952355,7.4805368 13.871597,7.0865093 13.71875,6.84375 13.446801,6.4118276 13.041889,6.0607099 12.5625,6.03125 12.083111,6.0017901 11.636771,6.2593678 11.25,6.625 11.181266,6.6899771 11.130335,6.8319657 11.0625,6.90625 L 11.03125,2.1875 c 3.26e-4,-0.010414 3.26e-4,-0.020836 0,-0.03125 C 11.001054,1.7682058 10.841441,1.4208993 10.59375,1.1875 10.346059,0.9541007 10.031261,0.8493865 9.71875,0.84375 Z m -0.03125,1 c 0.098748,0.00178 0.1678967,0.014581 0.21875,0.0625 0.050853,0.047919 0.110311,0.1549772 0.125,0.34375 L 10.0625,8.40625 C 10.0589,8.6356949 10.211919,8.8381456 10.433644,8.8972722 10.655369,8.9563989 10.88888,8.8570244 11,8.65625 11.348287,8.0446341 11.662902,7.6033393 11.9375,7.34375 12.212098,7.0841607 12.413105,7.0259101 12.5,7.03125 c 0.0869,0.00534 0.204666,0.073217 0.375,0.34375 0.170334,0.2705326 0.331448,0.7212783 0.46875,1.375 0.03857,0.1885398 0.181922,0.3382133 0.368622,0.3848882 0.186699,0.046675 0.383617,-0.017932 0.506378,-0.1661382 0.428874,-0.542788 0.78002,-0.7909283 1,-0.875 0.21998,-0.084072 0.314053,-0.049196 0.4375,0.03125 0.37919,0.2471037 0.582789,0.2883302 0.725157,1.7921905 L 16.96875,10.03125 c 0.23403,0.119704 0.520786,0.03777 0.65625,-0.1875 0.428268,-0.6701282 0.748312,-0.7674432 0.96875,-0.75 0.203873,0.016132 0.371251,0.2030466 0.4375,0.3125 V 15.375 c -0.36386,0.859189 -1.261672,1.524165 -2.5,1.96875 -1.256885,0.451248 -2.829512,0.645705 -4.375,0.59375 C 10.610762,17.885545 9.1008137,17.596049 7.96875,17.09375 6.8366863,16.591451 6.1374483,15.928398 6,15.1875 l 0.09375,-3.84375 c 0.06606,-0.143187 0.1387986,-0.248735 0.1875,-0.28125 0.054974,-0.0367 0.081456,-0.02712 0.21875,0 0.2745886,0.05424 0.8821534,0.404805 1.65625,1.25 0.1424941,0.135113 0.3508787,0.174319 0.5327327,0.10023 C 8.8708366,12.338642 8.9924947,12.164973 9,11.96875 L 9.125,2.25 C 9.2660101,1.9895466 9.5017039,1.840399 9.6875,1.84375 Z"
       id="path2367" />
  </g>
</svg>
